<?xml version="1.0" encoding="UTF-8" standalone="no"?>
<!-- Created with Inkscape (http://www.inkscape.org/) -->

<svg
   xmlns:dc="http://purl.org/dc/elements/1.1/"
   xmlns:cc="http://creativecommons.org/ns#"
   xmlns:rdf="http://www.w3.org/1999/02/22-rdf-syntax-ns#"
   xmlns:svg="http://www.w3.org/2000/svg"
   xmlns="http://www.w3.org/2000/svg"
   xmlns:xlink="http://www.w3.org/1999/xlink"
   version="1.1"
   width="595.15271"
   height="312.97662"
   id="svg3883">
  <defs
     id="defs3885">
    <linearGradient
       x1="111.90625"
       y1="149.25"
       x2="188.09375"
       y2="149.25"
       id="linearGradient3881"
       xlink:href="#linearGradient3859"
       gradientUnits="userSpaceOnUse" />
    <linearGradient
       x1="111.90625"
       y1="149.25"
       x2="188.09375"
       y2="149.25"
       id="linearGradient3879"
       xlink:href="#linearGradient3859"
       gradientUnits="userSpaceOnUse" />
    <linearGradient
       x1="111.90625"
       y1="149.25"
       x2="188.09375"
       y2="149.25"
       id="linearGradient3869"
       xlink:href="#linearGradient3859"
       gradientUnits="userSpaceOnUse"
       gradientTransform="translate(104.55508,6.9915254)" />
    <linearGradient
       x1="111.90625"
       y1="149.25"
       x2="188.09375"
       y2="149.25"
       id="linearGradient3865"
       xlink:href="#linearGradient3859"
       gradientUnits="userSpaceOnUse" />
    <linearGradient
       id="linearGradient3859">
      <stop
         id="stop3861"
         style="stop-color:#ffffff;stop-opacity:0"
         offset="0" />
      <stop
         id="stop3863"
         style="stop-color:#ffffff;stop-opacity:1"
         offset="1" />
    </linearGradient>
    <filter
       color-interpolation-filters="sRGB"
       id="filter4604">
      <feGaussianBlur
         id="feGaussianBlur4606"
         stdDeviation="3.1982577" />
    </filter>
    <linearGradient
       x1="111.90625"
       y1="149.25"
       x2="188.09375"
       y2="149.25"
       id="linearGradient4612"
       xlink:href="#linearGradient3859"
       gradientUnits="userSpaceOnUse" />
    <linearGradient
       x1="111.90625"
       y1="149.25"
       x2="188.09375"
       y2="149.25"
       id="linearGradient4614"
       xlink:href="#linearGradient3859"
       gradientUnits="userSpaceOnUse" />
  </defs>
  <metadata
     id="metadata3888">
    <rdf:RDF>
      <cc:Work
         rdf:about="">
        <dc:format>image/svg+xml</dc:format>
        <dc:type
           rdf:resource="http://purl.org/dc/dcmitype/StillImage" />
        <dc:title></dc:title>
      </cc:Work>
    </rdf:RDF>
  </metadata>
  <g
     transform="translate(-15.606039,-15.873882)"
     id="layer1">
    <g
       id="g4574"
       style="opacity:0.61940302;filter:url(#filter4604)">
      <g
         transform="translate(23.281857,23.5497)"
         id="g4522"
         style="fill:#000000">
        <g
           transform="translate(-111.90625,-0.4375)"
           id="g4524"
           style="fill:#000000">
          <path
             d="m 140.75,2.9375 c 0,0 -2.01922,0.6129653 -2.65625,1.25 -1.60081,1.7487825 -1.16914,3.720806 -1.1875,5.96875 l -0.96875,0.375 0.0625,9.25 0.875,0.6875 c 0,0 0.743,54.21757 -0.25,55.9375 -7.78153,8.287532 -21.82923,15.575994 -22.21875,28.3125 l 0,180.34375 c 0,2.3373 1.33191,4.74171 2.875,6.5625 1.54915,1.82795 3.62009,3.9375 6.03125,3.9375 l 26.6875,0 26.6875,0 c 2.41116,0 4.4821,-2.10955 6.03125,-3.9375 1.54309,-1.82079 2.875,-4.2252 2.875,-6.5625 l 0,-180.34375 C 185.20423,91.982244 171.15653,84.693782 163.375,76.40625 c -0.993,-1.71993 -0.25,-55.9375 -0.25,-55.9375 l 0.875,-0.6875 0.0625,-9.25 -0.96875,-0.375 c -0.0184,-2.247944 0.41331,-4.2199675 -1.1875,-5.96875 -0.63703,-0.6370347 -2.65625,-1.25 -2.65625,-1.25 l -9.25,0 -9.25,0 z"
             id="path4526"
             style="fill:#000000;stroke:#000000;stroke-width:5;stroke-linecap:butt;stroke-linejoin:miter;stroke-miterlimit:4;stroke-opacity:1;stroke-dasharray:none" />
          <path
             d="m 140.75,2.9375 c 0,0 -2.01922,0.6129653 -2.65625,1.25 -1.60081,1.7487825 -1.16914,3.720806 -1.1875,5.96875 l -0.96875,0.375 0.0625,9.25 0.875,0.6875 -0.25,55.9375 26.75,0 -0.25,-55.9375 0.875,-0.6875 0.0625,-9.25 -0.96875,-0.375 c -0.0184,-2.247944 0.41331,-4.2199675 -1.1875,-5.96875 -0.63703,-0.6370347 -2.65625,-1.25 -2.65625,-1.25 l -9.25,0 z"
             id="path4528"
             style="fill:#000000;stroke:#000000;stroke-width:5;stroke-linecap:butt;stroke-linejoin:miter;stroke-miterlimit:4;stroke-opacity:1;stroke-dasharray:none" />
          <path
             d="m 141.83035,20.026042 c 0,0 -1.78338,0.541374 -2.34601,1.104006 -1.41385,1.544534 -1.03259,3.286235 -1.04881,5.271631 l -0.8556,0.331202 0.0552,8.169648 0.7728,0.607203 c 0,0 0.65622,47.885239 -0.2208,49.40429 -6.87269,7.319592 -19.27969,13.756799 -19.62371,25.005748 l 0,159.28053 c 0,2.06432 1.17635,4.18791 2.53921,5.79604 1.36822,1.61445 3.19728,3.47762 5.32683,3.47762 l 23.57054,0 23.57054,0 c 2.12955,0 3.95861,-1.86317 5.32683,-3.47762 1.36286,-1.60813 2.53921,-3.73172 2.53921,-5.79604 l 0,-159.28053 c -0.34402,-11.248949 -12.75102,-17.686156 -19.62371,-25.005748 -0.87702,-1.519051 -0.2208,-49.40429 -0.2208,-49.40429 l 0.7728,-0.607203 0.0552,-8.169648 -0.8556,-0.331202 c -0.0163,-1.985396 0.36504,-3.727097 -1.04881,-5.271631 -0.56263,-0.562632 -2.34601,-1.104006 -2.34601,-1.104006 l -8.16965,0 -8.16965,0 z"
             id="path4530"
             style="opacity:0.05597014;fill:#000000;stroke:#ffffff;stroke-width:4.41602612;stroke-linecap:butt;stroke-linejoin:miter;stroke-miterlimit:4;stroke-opacity:1;stroke-dasharray:none" />
        </g>
        <g
           transform="translate(-111.90625,-0.4375)"
           id="g4532"
           style="fill:#000000;fill-opacity:1">
          <path
             d="m 140.75,2.9375 c 0,0 -2.01922,0.6129653 -2.65625,1.25 -1.60081,1.7487825 -1.16914,3.720806 -1.1875,5.96875 l -0.96875,0.375 0.0625,9.25 0.875,0.6875 c 0,0 0.743,54.21757 -0.25,55.9375 -7.78153,8.287532 -21.82923,15.575994 -22.21875,28.3125 l 0,180.34375 c 0,2.3373 1.33191,4.74171 2.875,6.5625 1.54915,1.82795 3.62009,3.9375 6.03125,3.9375 l 26.6875,0 26.6875,0 c 2.41116,0 4.4821,-2.10955 6.03125,-3.9375 1.54309,-1.82079 2.875,-4.2252 2.875,-6.5625 l 0,-180.34375 C 185.20423,91.982244 171.15653,84.693782 163.375,76.40625 c -0.993,-1.71993 -0.25,-55.9375 -0.25,-55.9375 l 0.875,-0.6875 0.0625,-9.25 -0.96875,-0.375 c -0.0184,-2.247944 0.41331,-4.2199675 -1.1875,-5.96875 -0.63703,-0.6370347 -2.65625,-1.25 -2.65625,-1.25 l -9.25,0 -9.25,0 z"
             id="path4534"
             style="opacity:0.12567169;fill:#000000;fill-opacity:1;stroke:#000000;stroke-width:5;stroke-linecap:butt;stroke-linejoin:miter;stroke-miterlimit:4;stroke-opacity:1;stroke-dasharray:none" />
        </g>
        <g
           transform="translate(-111.90625,-0.4375)"
           id="g4538"
           style="fill:#000000">
          <path
             d="m 114.40625,144.26879 0,140.79371 c 0,2.3373 1.33191,4.74171 2.875,6.5625 1.54915,1.82795 3.62009,3.9375 6.03125,3.9375 l 26.6875,0 26.6875,0 c 2.41116,0 4.4821,-2.10955 6.03125,-3.9375 1.54309,-1.82079 2.875,-4.2252 2.875,-6.5625 l 0,-140.79371 c 0,0 -12.30946,9.16037 -23.13723,7.61588 -10.82777,-1.54449 -23.71184,-24.59754 -34.02633,-23.34681 -10.31449,1.25073 -14.02394,15.73093 -14.02394,15.73093 z"
             id="path4540"
             style="fill:#000000;fill-opacity:1;stroke:#000000;stroke-width:3;stroke-linecap:butt;stroke-linejoin:miter;stroke-miterlimit:4;stroke-opacity:1;stroke-dasharray:none" />
          <path
             d="m 140.75,2.9375 c 0,0 -2.01922,0.6129653 -2.65625,1.25 -1.60081,1.7487825 -1.16914,3.720806 -1.1875,5.96875 l -0.96875,0.375 0.0625,9.25 0.875,0.6875 -0.25,55.9375 26.75,0 -0.25,-55.9375 0.875,-0.6875 0.0625,-9.25 -0.96875,-0.375 c -0.0184,-2.247944 0.41331,-4.2199675 -1.1875,-5.96875 -0.63703,-0.6370347 -2.65625,-1.25 -2.65625,-1.25 l -9.25,0 z"
             id="path4542"
             style="fill:#000000;stroke:#000000;stroke-width:5;stroke-linecap:butt;stroke-linejoin:miter;stroke-miterlimit:4;stroke-opacity:1;stroke-dasharray:none" />
          <path
             d="m 116.84581,148.91278 0,131.14384 c 0,2.1771 1.24063,4.41672 2.67795,6.11271 1.44298,1.70266 3.37198,3.66763 5.61788,3.66763 l 24.85836,0 24.85836,0 c 2.2459,0 4.1749,-1.96497 5.61788,-3.66763 1.43732,-1.69599 2.67795,-3.93561 2.67795,-6.11271 l 0,-131.14384 c 0,0 -11.46578,8.53253 -21.55143,7.0939 -10.08564,-1.43863 -22.08665,-22.91165 -31.69419,-21.74664 -9.60755,1.165 -13.06276,14.65274 -13.06276,14.65274 z"
             id="path4544"
             style="opacity:0.07089551;fill:#000000;stroke:#ffffff;stroke-width:2.79438257;stroke-linecap:butt;stroke-linejoin:miter;stroke-miterlimit:4;stroke-opacity:1;stroke-dasharray:none" />
          <path
             d="m 136.90625,10.15625 -0.96875,0.375 0.0625,9.25 0.875,0.6875 26.25,0 0.875,-0.6875 0.0625,-9.25 -0.96875,-0.375 z"
             id="path4546"
             style="fill:#000000;fill-opacity:1;stroke:#2b0000;stroke-width:2;stroke-linecap:butt;stroke-linejoin:miter;stroke-miterlimit:4;stroke-opacity:1;stroke-dasharray:none" />
          <path
             d="m 144.53815,8.1560699 c 0,0 -1.19229,0.5258857 -1.56843,1.0724216 -0.94523,1.5003465 -0.69035,3.1922205 -0.70119,5.1208155 l -0.57202,0.321726 0.0369,7.935924 0.51666,0.589833 -0.14761,47.990891 15.79504,0 -0.14761,-47.990891 0.51666,-0.589833 0.0369,-7.935924 -0.57202,-0.321726 c -0.0109,-1.928595 0.24404,-3.620469 -0.70119,-5.1208155 -0.37614,-0.5465359 -1.56843,-1.0724216 -1.56843,-1.0724216 l -5.46184,0 z"
             id="path4548"
             style="opacity:0.07835819;fill:#000000;stroke:#ffffff;stroke-width:3.55874205;stroke-linecap:butt;stroke-linejoin:miter;stroke-miterlimit:4;stroke-opacity:1;stroke-dasharray:none" />
          <path
             d="m 140.75,2.9375 c 0,0 -2.01922,0.6129653 -2.65625,1.25 -1.60081,1.7487825 -1.16914,3.720806 -1.1875,5.96875 l -0.96875,0.375 0.0625,9.25 0.875,0.6875 -0.25,55.9375 26.75,0 -0.25,-55.9375 0.875,-0.6875 0.0625,-9.25 -0.96875,-0.375 c -0.0184,-2.247944 0.41331,-4.2199675 -1.1875,-5.96875 -0.63703,-0.6370347 -2.65625,-1.25 -2.65625,-1.25 l -9.25,0 z"
             id="path4550"
             style="fill:#000000;stroke:#000000;stroke-width:5;stroke-linecap:butt;stroke-linejoin:miter;stroke-miterlimit:4;stroke-opacity:1;stroke-dasharray:none" />
        </g>
      </g>
      <text
         x="66.670082"
         y="310.29501"
         id="text4552"
         xml:space="preserve"
         style="font-size:106.15325165px;font-style:normal;font-weight:normal;line-height:125%;letter-spacing:0px;word-spacing:0px;fill:#000000;fill-opacity:1;stroke:#000000;stroke-width:3;stroke-linecap:round;stroke-linejoin:round;stroke-miterlimit:4;stroke-dasharray:none;font-family:Sans"><tspan
           x="66.670082"
           y="310.29501"
           id="tspan4554"
           style="font-style:normal;font-variant:normal;font-weight:bold;font-stretch:normal;fill:#000000;stroke:#000000;stroke-width:3;stroke-linecap:round;stroke-linejoin:round;stroke-miterlimit:4;stroke-dasharray:none;font-family:Droid Sans;-inkscape-font-specification:Droid Sans Bold">AWE-Some</tspan></text>
    </g>
    <g
       id="g4556">
      <g
         transform="translate(23.281857,23.5497)"
         id="g3994">
        <g
           transform="translate(-111.90625,-0.4375)"
           id="g3800"
           style="fill:#222b00">
          <path
             d="m 140.75,2.9375 c 0,0 -2.01922,0.6129653 -2.65625,1.25 -1.60081,1.7487825 -1.16914,3.720806 -1.1875,5.96875 l -0.96875,0.375 0.0625,9.25 0.875,0.6875 c 0,0 0.743,54.21757 -0.25,55.9375 -7.78153,8.287532 -21.82923,15.575994 -22.21875,28.3125 l 0,180.34375 c 0,2.3373 1.33191,4.74171 2.875,6.5625 1.54915,1.82795 3.62009,3.9375 6.03125,3.9375 l 26.6875,0 26.6875,0 c 2.41116,0 4.4821,-2.10955 6.03125,-3.9375 1.54309,-1.82079 2.875,-4.2252 2.875,-6.5625 l 0,-180.34375 C 185.20423,91.982244 171.15653,84.693782 163.375,76.40625 c -0.993,-1.71993 -0.25,-55.9375 -0.25,-55.9375 l 0.875,-0.6875 0.0625,-9.25 -0.96875,-0.375 c -0.0184,-2.247944 0.41331,-4.2199675 -1.1875,-5.96875 -0.63703,-0.6370347 -2.65625,-1.25 -2.65625,-1.25 l -9.25,0 -9.25,0 z"
             id="path3003"
             style="fill:#222b00;stroke:#000000;stroke-width:5;stroke-linecap:butt;stroke-linejoin:miter;stroke-miterlimit:4;stroke-opacity:1;stroke-dasharray:none" />
          <path
             d="m 140.75,2.9375 c 0,0 -2.01922,0.6129653 -2.65625,1.25 -1.60081,1.7487825 -1.16914,3.720806 -1.1875,5.96875 l -0.96875,0.375 0.0625,9.25 0.875,0.6875 -0.25,55.9375 26.75,0 -0.25,-55.9375 0.875,-0.6875 0.0625,-9.25 -0.96875,-0.375 c -0.0184,-2.247944 0.41331,-4.2199675 -1.1875,-5.96875 -0.63703,-0.6370347 -2.65625,-1.25 -2.65625,-1.25 l -9.25,0 z"
             id="path3798"
             style="fill:#222b00;stroke:#000000;stroke-width:5;stroke-linecap:butt;stroke-linejoin:miter;stroke-miterlimit:4;stroke-opacity:1;stroke-dasharray:none" />
          <path
             d="m 141.83035,20.026042 c 0,0 -1.78338,0.541374 -2.34601,1.104006 -1.41385,1.544534 -1.03259,3.286235 -1.04881,5.271631 l -0.8556,0.331202 0.0552,8.169648 0.7728,0.607203 c 0,0 0.65622,47.885239 -0.2208,49.40429 -6.87269,7.319592 -19.27969,13.756799 -19.62371,25.005748 l 0,159.28053 c 0,2.06432 1.17635,4.18791 2.53921,5.79604 1.36822,1.61445 3.19728,3.47762 5.32683,3.47762 l 23.57054,0 23.57054,0 c 2.12955,0 3.95861,-1.86317 5.32683,-3.47762 1.36286,-1.60813 2.53921,-3.73172 2.53921,-5.79604 l 0,-159.28053 c -0.34402,-11.248949 -12.75102,-17.686156 -19.62371,-25.005748 -0.87702,-1.519051 -0.2208,-49.40429 -0.2208,-49.40429 l 0.7728,-0.607203 0.0552,-8.169648 -0.8556,-0.331202 c -0.0163,-1.985396 0.36504,-3.727097 -1.04881,-5.271631 -0.56263,-0.562632 -2.34601,-1.104006 -2.34601,-1.104006 l -8.16965,0 -8.16965,0 z"
             id="path3831"
             style="opacity:0.05597014;fill:none;stroke:#ffffff;stroke-width:4.41602612;stroke-linecap:butt;stroke-linejoin:miter;stroke-miterlimit:4;stroke-opacity:1;stroke-dasharray:none" />
        </g>
        <g
           transform="translate(-111.90625,-0.4375)"
           id="g3851"
           style="fill:url(#linearGradient4614);fill-opacity:1">
          <path
             d="m 140.75,2.9375 c 0,0 -2.01922,0.6129653 -2.65625,1.25 -1.60081,1.7487825 -1.16914,3.720806 -1.1875,5.96875 l -0.96875,0.375 0.0625,9.25 0.875,0.6875 c 0,0 0.743,54.21757 -0.25,55.9375 -7.78153,8.287532 -21.82923,15.575994 -22.21875,28.3125 l 0,180.34375 c 0,2.3373 1.33191,4.74171 2.875,6.5625 1.54915,1.82795 3.62009,3.9375 6.03125,3.9375 l 26.6875,0 26.6875,0 c 2.41116,0 4.4821,-2.10955 6.03125,-3.9375 1.54309,-1.82079 2.875,-4.2252 2.875,-6.5625 l 0,-180.34375 C 185.20423,91.982244 171.15653,84.693782 163.375,76.40625 c -0.993,-1.71993 -0.25,-55.9375 -0.25,-55.9375 l 0.875,-0.6875 0.0625,-9.25 -0.96875,-0.375 c -0.0184,-2.247944 0.41331,-4.2199675 -1.1875,-5.96875 -0.63703,-0.6370347 -2.65625,-1.25 -2.65625,-1.25 l -9.25,0 -9.25,0 z"
             id="path3853"
             style="opacity:0.12567169;fill:url(#linearGradient4612);fill-opacity:1;stroke:#000000;stroke-width:5;stroke-linecap:butt;stroke-linejoin:miter;stroke-miterlimit:4;stroke-opacity:1;stroke-dasharray:none" />
        </g>
        <g
           transform="translate(-111.90625,-0.4375)"
           id="g3804">
          <path
             d="m 114.40625,144.26879 0,140.79371 c 0,2.3373 1.33191,4.74171 2.875,6.5625 1.54915,1.82795 3.62009,3.9375 6.03125,3.9375 l 26.6875,0 26.6875,0 c 2.41116,0 4.4821,-2.10955 6.03125,-3.9375 1.54309,-1.82079 2.875,-4.2252 2.875,-6.5625 l 0,-140.79371 c 0,0 -12.30946,9.16037 -23.13723,7.61588 -10.82777,-1.54449 -23.71184,-24.59754 -34.02633,-23.34681 -10.31449,1.25073 -14.02394,15.73093 -14.02394,15.73093 z"
             id="path3806"
             style="fill:#680000;fill-opacity:1;stroke:#000000;stroke-width:3;stroke-linecap:butt;stroke-linejoin:miter;stroke-miterlimit:4;stroke-opacity:1;stroke-dasharray:none" />
          <path
             d="m 140.75,2.9375 c 0,0 -2.01922,0.6129653 -2.65625,1.25 -1.60081,1.7487825 -1.16914,3.720806 -1.1875,5.96875 l -0.96875,0.375 0.0625,9.25 0.875,0.6875 -0.25,55.9375 26.75,0 -0.25,-55.9375 0.875,-0.6875 0.0625,-9.25 -0.96875,-0.375 c -0.0184,-2.247944 0.41331,-4.2199675 -1.1875,-5.96875 -0.63703,-0.6370347 -2.65625,-1.25 -2.65625,-1.25 l -9.25,0 z"
             id="path3808"
             style="fill:#550000;stroke:#000000;stroke-width:5;stroke-linecap:butt;stroke-linejoin:miter;stroke-miterlimit:4;stroke-opacity:1;stroke-dasharray:none" />
          <path
             d="m 116.84581,148.91278 0,131.14384 c 0,2.1771 1.24063,4.41672 2.67795,6.11271 1.44298,1.70266 3.37198,3.66763 5.61788,3.66763 l 24.85836,0 24.85836,0 c 2.2459,0 4.1749,-1.96497 5.61788,-3.66763 1.43732,-1.69599 2.67795,-3.93561 2.67795,-6.11271 l 0,-131.14384 c 0,0 -11.46578,8.53253 -21.55143,7.0939 -10.08564,-1.43863 -22.08665,-22.91165 -31.69419,-21.74664 -9.60755,1.165 -13.06276,14.65274 -13.06276,14.65274 z"
             id="path3829"
             style="opacity:0.07089551;fill:none;stroke:#ffffff;stroke-width:2.79438257;stroke-linecap:butt;stroke-linejoin:miter;stroke-miterlimit:4;stroke-opacity:1;stroke-dasharray:none" />
          <path
             d="m 136.90625,10.15625 -0.96875,0.375 0.0625,9.25 0.875,0.6875 26.25,0 0.875,-0.6875 0.0625,-9.25 -0.96875,-0.375 z"
             id="path3847"
             style="fill:#550000;fill-opacity:1;stroke:#2b0000;stroke-width:2;stroke-linecap:butt;stroke-linejoin:miter;stroke-miterlimit:4;stroke-opacity:1;stroke-dasharray:none" />
          <path
             d="m 144.53815,8.1560699 c 0,0 -1.19229,0.5258857 -1.56843,1.0724216 -0.94523,1.5003465 -0.69035,3.1922205 -0.70119,5.1208155 l -0.57202,0.321726 0.0369,7.935924 0.51666,0.589833 -0.14761,47.990891 15.79504,0 -0.14761,-47.990891 0.51666,-0.589833 0.0369,-7.935924 -0.57202,-0.321726 c -0.0109,-1.928595 0.24404,-3.620469 -0.70119,-5.1208155 -0.37614,-0.5465359 -1.56843,-1.0724216 -1.56843,-1.0724216 l -5.46184,0 z"
             id="path3845"
             style="opacity:0.07835819;fill:none;stroke:#ffffff;stroke-width:3.55874205;stroke-linecap:butt;stroke-linejoin:miter;stroke-miterlimit:4;stroke-opacity:1;stroke-dasharray:none" />
          <path
             d="m 140.75,2.9375 c 0,0 -2.01922,0.6129653 -2.65625,1.25 -1.60081,1.7487825 -1.16914,3.720806 -1.1875,5.96875 l -0.96875,0.375 0.0625,9.25 0.875,0.6875 -0.25,55.9375 26.75,0 -0.25,-55.9375 0.875,-0.6875 0.0625,-9.25 -0.96875,-0.375 c -0.0184,-2.247944 0.41331,-4.2199675 -1.1875,-5.96875 -0.63703,-0.6370347 -2.65625,-1.25 -2.65625,-1.25 l -9.25,0 z"
             id="path3849"
             style="fill:none;stroke:#000000;stroke-width:5;stroke-linecap:butt;stroke-linejoin:miter;stroke-miterlimit:4;stroke-opacity:1;stroke-dasharray:none" />
        </g>
      </g>
      <text
         x="66.670082"
         y="310.29501"
         id="text4010"
         xml:space="preserve"
         style="font-size:106.15325165px;font-style:normal;font-weight:normal;line-height:125%;letter-spacing:0px;word-spacing:0px;fill:#ffffff;fill-opacity:1;stroke:#000000;stroke-width:3;stroke-linecap:round;stroke-linejoin:round;stroke-miterlimit:4;stroke-dasharray:none;font-family:Sans"><tspan
           x="66.670082"
           y="310.29501"
           id="tspan4012"
           style="font-style:normal;font-variant:normal;font-weight:bold;font-stretch:normal;fill:#ffffff;stroke:#000000;stroke-width:3;stroke-linecap:round;stroke-linejoin:round;stroke-miterlimit:4;stroke-dasharray:none;font-family:Droid Sans;-inkscape-font-specification:Droid Sans Bold">AWE-Some</tspan></text>
    </g>
  </g>
</svg>
